{"title":"Abducted.2014.DVDRIP.XVID.MP3-Insane098","uid":10053234,"size":942983566,"categoryP":"video","categoryS":"movies","magnet":"?xt=urn:btih:d04aafe41c4fd01f70e19ea9ca9c7d84c90228a7&amp;dn=Abducted.2014.DVDRIP.XVID.MP3-Insane098&amp;tr=udp%3A%2F%2Ftracker.openbittorrent.com%3A80&amp;tr=udp%3A%2F%2Fopen.demonii.com%3A1337&amp;tr=udp%3A%2F%2Ftracker.coppersurfer.tk%3A6969&amp;tr=udp%3A%2F%2Fexodus.desync.com%3A6969","seeders":1,"leechers":0,"uploader":"098765432","files":-1,"time":1398634305,"description":"Plot:\nIn an attempt to rebuild his marriage after the death of his son, Matt Hollis decides to take his wife and six year old daughter Lara on a trip of a lifetime to LA, to escape the constant reminders of their loss. Shortly after their arrival Matt's world is turned upside down when his wife is attacked in their holiday home, leaving her in a coma and their daughter LARA kidnapped by a child trafficking ring. Hunted by the police who mistakenly believe Matt has absconded with his daughter, he must evade capture and pursue the criminals responsible for Lara's abduction. Realizing he only has a 72-hour window of opportunity if he ever wants to see his daughter alive again, he enlists the help of Syan an old forces buddy, Matt tears a path of bloody vengeance through the streets of LA on a collision course with Lara's captors.\n\nScreenshots:  &lt;a href=&quot;\nhttp://i1186.photobucket.com/albums/z372/Insane098/Screenshots/Abducted1.jpg&quot; rel=&quot;nofollow&quot; target=&quot;_NEW&quot;&gt;\nhttp://i1186.photobucket.com/albums/z372/Insane098/Screenshots/Abducted1.jpg&lt;/a&gt;  &lt;a href=&quot;\nhttp://i1186.photobucket.com/albums/z372/Insane098/Screenshots/Abducted2.jpg&quot; rel=&quot;nofollow&quot; target=&quot;_NEW&quot;&gt;\nhttp://i1186.photobucket.com/albums/z372/Insane098/Screenshots/Abducted2.jpg&lt;/a&gt;  &lt;a href=&quot;\nhttp://i1186.photobucket.com/albums/z372/Insane098/Screenshots/Abducted3.jpg&quot; rel=&quot;nofollow&quot; target=&quot;_NEW&quot;&gt;\nhttp://i1186.photobucket.com/albums/z372/Insane098/Screenshots/Abducted3.jpg&lt;/a&gt;  &lt;a href=&quot;\nhttp://i1186.photobucket.com/albums/z372/Insane098/Screenshots/Abducted4.jpg&quot; rel=&quot;nofollow&quot; target=&quot;_NEW&quot;&gt;\nhttp://i1186.photobucket.com/albums/z372/Insane098/Screenshots/Abducted4.jpg&lt;/a&gt;\n\nMedia Info:\nFormat                                   : AVI\nFormat/Info                              : Audio Video Interleave\nFile size                                : 899 MiB\nDuration                                 : 1h 26mn\nOverall bit rate                         : 1 453 Kbps\nWriting application                      : Lavf55.33.100\n\nVideo\nID                                       : 0\nFormat                                   : MPEG-4 Visual\nFormat profile                           : Advanced Simple@L5\nFormat settings, BVOP                    : 2\nFormat settings, QPel                    : No\nFormat settings, GMC                     : No warppoints\nFormat settings, Matrix                  : Default (H.263)\nMuxing mode                              : Packed bitstream\nCodec ID                                 : XVID\nCodec ID/Hint                            : XviD\nDuration                                 : 1h 26mn\nBit rate                                 : 1 248 Kbps\nWidth                                    : 720 pixels\nHeight                                   : 400 pixels\nDisplay aspect ratio                     : 16:9\nOriginal display aspect ratio            : 16:9\nFrame rate                               : 25.000 fps\nColor space                              : YUV\nChroma subsampling                       : 4:2:0\nBit depth                                : 8 bits\nScan type                                : Progressive\nCompression mode                         : Lossy\nBits/(Pixel*Frame)                       : 0.173\nStream size                              : 772 MiB (86%)\nWriting library                          : XviD 1.2.1 (UTC 2008-12-04)\n\nAudio\nID                                       : 1\nFormat                                   : MPEG Audio\nFormat version                           : Version 1\nFormat profile                           : Layer 3\nCodec ID                                 : 55\nCodec ID/Hint                            : MP3\nDuration                                 : 1h 26mn\nBit rate mode                            : Constant\nBit rate                                 : 192 Kbps\nChannel count                            : 2 channels\nSampling rate                            : 48.0 KHz\nCompression mode                         : Lossy\nStream size                              : 119 MiB (13%)\nAlignment                                : Aligned on interleaves\nInterleave, duration                     : 24 ms (0.60 video frame)\nInterleave, preload duration             : 24 ms\nWriting library                          : LAME3.99.5","torrent":{"xt":"urn:btih:d04aafe41c4fd01f70e19ea9ca9c7d84c90228a7","amp;dn":"Abducted.2014.DVDRIP.XVID.MP3-Insane098","amp;tr":["udp%3A%2F%2Ftracker.openbittorrent.com%3A80","udp%3A%2F%2Fopen.demonii.com%3A1337","udp%3A%2F%2Ftracker.coppersurfer.tk%3A6969","udp%3A%2F%2Fexodus.desync.com%3A6969"],"infoHash":"d04aafe41c4fd01f70e19ea9ca9c7d84c90228a7","infoHashBuffer":{"type":"Buffer","data":[208,74,175,228,28,79,208,31,112,225,158,169,202,156,125,132,201,2,40,167]},"announce":[],"urlList":[]}}